<svg version="1.1" id="Capa_1" xmlns="http://www.w3.org/2000/svg" xmlns:xlink="http://www.w3.org/1999/xlink" x="0px" y="0px" viewBox="0 0 512 512" style="enable-background:new 0 0 512 512;" xml:space="preserve">
<g>
	<g>
		<path style="fill:#FDCB50;" d="M415.558,413.35H96.442C48.701,413.35,10,374.648,10,326.907v-0.233&#10;&#9;&#9;&#9;c0-47.741,38.701-86.442,86.442-86.442h319.116c47.741,0,86.442,38.701,86.442,86.442v0.233&#10;&#9;&#9;&#9;C502,374.648,463.298,413.35,415.558,413.35z"/>
		<path style="fill:#FD8F01;" d="M170.601,268.916c0-9.766,0.789-19.347,2.304-28.683H96.326C48.649,240.232,10,278.986,10,326.791&#10;&#9;&#9;&#9;v0c0,47.805,38.649,86.559,86.326,86.559h148.613C199.946,381.234,170.601,328.511,170.601,268.916z"/>
		<path style="fill:#FFFFFF;" d="M415.674,413.35L415.674,413.35c-47.677,0-86.326-38.649-86.326-86.326v-0.465&#10;&#9;&#9;&#9;c0-47.677,38.649-86.326,86.326-86.326h0c47.677,0,86.326,38.649,86.326,86.326v0.465C502,374.7,463.351,413.35,415.674,413.35z"/>
		<path style="fill:#FDCB50;" d="M431.575,369.739h-31.801c-8.071,0-14.613-6.543-14.613-14.613V329.43&#10;&#9;&#9;&#9;c0-8.071,6.543-14.613,14.613-14.613h31.801c8.071,0,14.613,6.543,14.613,14.613v25.695&#10;&#9;&#9;&#9;C446.188,363.196,439.645,369.739,431.575,369.739z"/>
	</g>
	<g>
		<g>
			<g>
				<path style="fill:none;stroke:#FD6050;stroke-width:20;stroke-linecap:round;stroke-linejoin:round;stroke-miterlimit:10;" d="&#10;&#9;&#9;&#9;&#9;&#9;M380.898,179.34V98.801l54.306,78.85c1.007,1.458,2.085,0.744,2.085-1.03l-0.752-77.97"/>
			</g>
			<g>
				<path style="fill:none;stroke:#FD6050;stroke-width:20;stroke-linecap:round;stroke-linejoin:round;stroke-miterlimit:10;" d="&#10;&#9;&#9;&#9;&#9;&#9;M74.711,98.65v80.622c0.889,0.153,28.179,0,28.179,0"/>
			</g>
			<g>
				
					<line style="fill:none;stroke:#FD6050;stroke-width:20;stroke-linecap:round;stroke-linejoin:round;stroke-miterlimit:10;" x1="342.781" y1="98.65" x2="342.781" y2="179.34"/>
			</g>
			<g>
				<path style="fill:none;stroke:#FD6050;stroke-width:20;stroke-linecap:round;stroke-linejoin:round;stroke-miterlimit:10;" d="&#10;&#9;&#9;&#9;&#9;&#9;M295.197,105.541c-6.422-4.35-14.163-6.89-22.497-6.89c-22.222,0-40.236,18.063-40.236,40.345s18.014,40.345,40.236,40.345&#10;&#9;&#9;&#9;&#9;&#9;c22.222,0,34.734-18.063,34.734-40.345h-24.073"/>
			</g>
			
				<ellipse style="fill:none;stroke:#FD6050;stroke-width:20;stroke-linecap:round;stroke-linejoin:round;stroke-miterlimit:10;" cx="162.914" cy="138.995" rx="40.236" ry="40.345"/>
		</g>
		<path style="fill:none;stroke:#052A75;stroke-width:20;stroke-linecap:round;stroke-linejoin:round;stroke-miterlimit:10;" d="&#10;&#9;&#9;&#9;M415.558,413.35H96.442C48.701,413.35,10,374.648,10,326.907v-0.233c0-47.741,38.701-86.442,86.442-86.442h319.116&#10;&#9;&#9;&#9;c47.741,0,86.442,38.701,86.442,86.442v0.233C502,374.648,463.298,413.35,415.558,413.35z"/>
		<path style="fill:none;stroke:#052A75;stroke-width:20;stroke-linecap:round;stroke-linejoin:round;stroke-miterlimit:10;" d="&#10;&#9;&#9;&#9;M431.575,369.739h-31.801c-8.071,0-14.613-6.543-14.613-14.613V329.43c0-8.071,6.543-14.613,14.613-14.613h31.801&#10;&#9;&#9;&#9;c8.071,0,14.613,6.543,14.613,14.613v25.695C446.188,363.196,439.645,369.739,431.575,369.739z"/>
		<path style="fill:none;stroke:#052A75;stroke-width:20;stroke-linecap:round;stroke-linejoin:round;stroke-miterlimit:10;" d="&#10;&#9;&#9;&#9;M395.538,314.817v-17.055c0-11.151,9.015-20.19,20.136-20.19h0c11.121,0,20.136,9.039,20.136,20.19v17.055"/>
	</g>
</g>
<g>
</g>
<g>
</g>
<g>
</g>
<g>
</g>
<g>
</g>
<g>
</g>
<g>
</g>
<g>
</g>
<g>
</g>
<g>
</g>
<g>
</g>
<g>
</g>
<g>
</g>
<g>
</g>
<g>
</g>
</svg>